<?xml version="1.0" encoding="UTF-8"?>
<svg width="10px" height="16px" viewBox="0 0 10 16" version="1.1" xmlns="http://www.w3.org/2000/svg" xmlns:xlink="http://www.w3.org/1999/xlink">
    <!-- Generator: Sketch 46.2 (44496) - http://www.bohemiancoding.com/sketch -->
    <title>dollar</title>
    <desc>Created with Sketch.</desc>
    <defs></defs>
    <g id="BlueChilli-webapp-ui" stroke="none" stroke-width="1" fill="none" fill-rule="evenodd">
        <path d="M2.48184818,10.1386139 C2.47011362,10.8074841 2.64612946,11.3355316 3.00990099,11.7227723 C3.37367252,12.1100129 3.82544651,12.3564351 4.36523652,12.4620462 L4.36523652,8.78327833 C4.3065637,8.7598092 4.22735657,8.73340682 4.12761276,8.70407041 C4.02786895,8.67473399 3.91932585,8.64833162 3.8019802,8.62486249 C3.36780128,8.50751683 2.93949606,8.36963776 2.51705171,8.21122112 C2.09460735,8.05280449 1.71617329,7.84158548 1.38173817,7.57755776 C1.04730306,7.31353003 0.780345699,6.98496713 0.580858086,6.59185919 C0.381370473,6.19875124 0.281628163,5.70884048 0.281628163,5.12211221 C0.281628163,4.52364937 0.39603846,3.99560185 0.624862486,3.5379538 C0.853686513,3.08030574 1.15584704,2.69600449 1.53135314,2.3850385 C1.90685923,2.07407252 2.34103164,1.83351754 2.83388339,1.66336634 C3.32673514,1.49321514 3.83718108,1.39053923 4.36523652,1.35533553 L4.36523652,0 L5.40374037,0 L5.40374037,1.35533553 C5.93179582,1.41400836 6.42757377,1.52841866 6.89108911,1.69856986 C7.35460444,1.86872106 7.76237448,2.10340884 8.11441144,2.40264026 C8.4664484,2.70187168 8.75394095,3.07443855 8.97689769,3.52035204 C9.19985443,3.96626552 9.32893272,4.49431305 9.36413641,5.10451045 L6.86468647,5.10451045 C6.8529519,4.63512783 6.70627204,4.23615859 6.42464246,3.90759076 C6.14301289,3.57902293 5.8027156,3.41474147 5.40374037,3.41474147 L5.40374037,6.53025303 C5.54455516,6.56545672 5.68830143,6.60065989 5.8349835,6.63586359 C5.98166557,6.67106728 6.13714623,6.71213765 6.30143014,6.75907591 C7.16978799,6.99376722 7.83864818,7.28419336 8.3080308,7.63036304 C8.77741342,7.97653272 9.12357791,8.33736519 9.34653465,8.71287129 C9.5694914,9.08837738 9.70150328,9.46387784 9.74257426,9.83938394 C9.78364524,10.21489 9.80418042,10.5493201 9.80418042,10.8426843 C9.80418042,11.1008447 9.73964128,11.426474 9.61056106,11.819582 C9.48148084,12.2126899 9.24972664,12.5969912 8.91529153,12.9724972 C8.58085641,13.3480033 8.13201602,13.6824334 7.56875688,13.9757976 C7.00549773,14.2691617 6.28383278,14.4451776 5.40374037,14.5038504 L5.40374037,16 L4.36523652,16 L4.36523652,14.5038504 C3.05096519,14.4099739 2.02420612,14.0051374 1.28492849,13.2893289 C0.545650869,12.5735204 0.117345655,11.5232926 0,10.1386139 L2.48184818,10.1386139 Z M5.40374037,12.4620462 C5.61496255,12.4385771 5.83498235,12.3887059 6.06380638,12.3124312 C6.29263041,12.2361566 6.49798222,12.1276135 6.67986799,11.9867987 C6.86175375,11.8459839 7.01136722,11.6729017 7.12871287,11.4675468 C7.24605853,11.2621919 7.30473047,11.0187033 7.30473047,10.7370737 C7.30473047,10.2794257 7.1609842,9.93619476 6.87348735,9.70737074 C6.5859905,9.47854671 6.09607974,9.2702613 5.40374037,9.08250825 L5.40374037,12.4620462 Z M4.36523652,3.41474147 C4.16574891,3.41474147 3.97213149,3.44407745 3.78437844,3.50275028 C3.59662539,3.5614231 3.42647674,3.65236462 3.27392739,3.77557756 C3.12137804,3.8987905 3.00110055,4.05133756 2.91309131,4.23322332 C2.82508207,4.41510909 2.78107811,4.62926169 2.78107811,4.87568757 C2.78107811,5.26292823 2.9042892,5.56215516 3.15071507,5.77337734 C3.39714095,5.98459952 3.80197738,6.15474816 4.36523652,6.28382838 L4.36523652,3.41474147 Z" id="dollar" fill="#909099"></path>
    </g>
</svg>