<?xml version="1.0" encoding="UTF-8"?>
<svg width="15px" height="16px" viewBox="0 0 15 16" version="1.1" xmlns="http://www.w3.org/2000/svg" xmlns:xlink="http://www.w3.org/1999/xlink">
    <!-- Generator: Sketch 46.2 (44496) - http://www.bohemiancoding.com/sketch -->
    <title>euro</title>
    <desc>Created with Sketch.</desc>
    <defs></defs>
    <g id="BlueChilli-webapp-ui" stroke="none" stroke-width="1" fill="none" fill-rule="evenodd">
        <path d="M0,11.2300713 L0.43551523,9.14581983 L2.99675956,9.14581983 C2.96910766,8.8001711 2.95528192,8.43724537 2.95528192,8.05703176 C2.95528192,7.72520897 2.96565122,7.40030403 2.98639015,7.08230719 L0,7.08230719 L0.43551523,4.99805574 L3.27673364,4.99805574 C3.56707857,3.76063326 4.06134885,2.72370261 4.7595593,1.88723266 C5.80341848,0.629071264 7.13414616,0 8.75178224,0 C10.9086304,0 12.4882214,0.843370266 13.4906027,2.5301361 C14.0436407,3.47721364 14.3408942,4.4277334 14.382372,5.38172391 L11.6966948,5.38172391 C11.5238704,4.64894859 11.2992021,4.09591891 11.0226831,3.72261828 C10.5387749,3.0589727 9.81637983,2.72715489 8.85547634,2.72715489 C7.88074691,2.72715489 7.10996179,3.19723012 6.54309786,4.13739469 C6.39101242,4.39317475 6.25966787,4.6800589 6.14906027,4.99805574 L10.2657161,4.99805574 L9.83020091,7.08230719 L5.73428386,7.08230719 C5.71354494,7.40721701 5.70317563,7.74940412 5.70317563,8.10887881 C5.70317563,8.47526647 5.71354494,8.82091002 5.73428386,9.14581983 L9.57096565,9.14581983 L9.13545042,11.2300713 L6.20090732,11.2300713 C6.31151492,11.4996773 6.44285947,11.7450842 6.59494491,11.9662994 C7.18946074,12.8165953 7.94642012,13.2417369 8.86584576,13.2417369 C9.80601032,13.2417369 10.5214925,12.8753547 11.0123137,12.1425794 C11.2888327,11.7485398 11.5169574,11.1574894 11.6966948,10.3694102 L14.3512638,10.3694102 C14.1162226,12.0354371 13.5217157,13.3903599 12.5677252,14.4342191 C11.6137347,15.4780782 10.3901565,16 8.89695399,16 C7.05118973,16 5.59948682,15.2948872 4.54180169,13.8846403 C3.98876371,13.144952 3.58090432,12.2601045 3.31821128,11.2300713 L0,11.2300713 Z" id="euro" fill="#909099"></path>
    </g>
</svg>