<?xml version="1.0" encoding="UTF-8"?>
<svg width="19px" height="16px" viewBox="0 0 19 16" version="1.1" xmlns="http://www.w3.org/2000/svg" xmlns:xlink="http://www.w3.org/1999/xlink">
    <!-- Generator: Sketch 46.2 (44496) - http://www.bohemiancoding.com/sketch -->
    <title>percentage</title>
    <desc>Created with Sketch.</desc>
    <defs></defs>
    <g id="BlueChilli-webapp-ui" stroke="none" stroke-width="1" fill="none" fill-rule="evenodd">
        <path d="M5.20967742,5.28494624 C5.54301242,4.95161124 5.70967742,4.54838946 5.70967742,4.07526882 C5.70967742,3.60214817 5.54301242,3.1989264 5.20967742,2.8655914 C4.87634242,2.5322564 4.47312065,2.3655914 4,2.3655914 C3.52687935,2.3655914 3.12365758,2.5322564 2.79032258,2.8655914 C2.45698758,3.1989264 2.29032258,3.60214817 2.29032258,4.07526882 C2.29032258,4.54838946 2.45698758,4.95161124 2.79032258,5.28494624 C3.12365758,5.61828124 3.52687935,5.78494624 4,5.78494624 C4.47312065,5.78494624 4.87634242,5.61828124 5.20967742,5.28494624 Z M6.83333333,6.90322581 C6.05555167,7.68459172 5.11111667,8.07526882 4,8.07526882 C2.89605183,8.07526882 1.95340892,7.68459172 1.17204301,6.90322581 C0.390677097,6.12185989 0,5.17921699 0,4.07526882 C0,2.97132065 0.390677097,2.02867774 1.17204301,1.24731183 C1.95340892,0.465945914 2.89605183,0.0752688172 4,0.0752688172 C5.10394817,0.0752688172 6.04659108,0.465945914 6.82795699,1.24731183 C7.6093229,2.02867774 8,2.97132065 8,4.07526882 C8,5.17921699 7.611115,6.12185989 6.83333333,6.90322581 Z M15.6612903,10.6935484 C15.3279553,10.3602134 14.9247335,10.1935484 14.4516129,10.1935484 C13.9784923,10.1935484 13.5752705,10.3602134 13.2419355,10.6935484 C12.9086005,11.0268834 12.7419355,11.4301052 12.7419355,11.9032258 C12.7419355,12.3763465 12.9086005,12.7795682 13.2419355,13.1129032 C13.5752705,13.4462382 13.9784923,13.6129032 14.4516129,13.6129032 C14.9247335,13.6129032 15.3279553,13.4462382 15.6612903,13.1129032 C15.9946253,12.7795682 16.1612903,12.3763465 16.1612903,11.9032258 C16.1612903,11.4301052 15.9946253,11.0268834 15.6612903,10.6935484 Z M17.2795699,14.7311828 C16.498204,15.5125487 15.5555611,15.9032258 14.4516129,15.9032258 C13.3476647,15.9032258 12.4050218,15.5125487 11.6236559,14.7311828 C10.84229,13.9498169 10.4516129,13.007174 10.4516129,11.9032258 C10.4516129,10.7921091 10.84229,9.84767414 11.6236559,9.06989247 C12.4050218,8.29211081 13.3476647,7.90322581 14.4516129,7.90322581 C15.5555611,7.90322581 16.498204,8.2939029 17.2795699,9.07526882 C18.0609358,9.85663473 18.4516129,10.7992776 18.4516129,11.9032258 C18.4516129,13.007174 18.0609358,13.9498169 17.2795699,14.7311828 Z M12.7419355,0 L14.3763441,0 L5.68817204,16 L4.02150538,16 L12.7419355,0 Z" id="percentage" fill="#909099"></path>
    </g>
</svg>