<?xml version="1.0" encoding="UTF-8"?>
<svg width="64px" height="68px" viewBox="0 0 64 68" version="1.1" xmlns="http://www.w3.org/2000/svg" xmlns:xlink="http://www.w3.org/1999/xlink">
    <!-- Generator: Sketch 46.2 (44496) - http://www.bohemiancoding.com/sketch -->
    <title>Page 1</title>
    <desc>Created with Sketch.</desc>
    <defs></defs>
    <g id="Symbols" stroke="none" stroke-width="1" fill="none" fill-rule="evenodd">
        <g id="drop-zone/default" transform="translate(-279.000000, -42.000000)" fill="#DFDEE3">
            <g id="drop-zone" transform="translate(224.000000, 42.000000)">
                <g id="Page-1" transform="translate(55.000000, 0.000000)">
                    <path d="M60,64 L16,64 L16,52 L38,52 C39.1048,52 40,51.1048 40,50 L40,20 L60,20 L60,64 Z M4,48 L4,4 L24,4 L24,14 C24,15.1048 24.8952,16 26,16 L36,16 L36,48 L4,48 Z M28,6.8288 L33.1712,12 L28,12 L28,6.8288 Z M64,66 L64,18 C64,16.8952 63.1048,16 62,16 L40,16 L40,14 C40,13.4696 39.7896,12.9608 39.4144,12.5856 L27.4144,0.5856 C27.0392,0.2104 26.5304,0 26,0 L2,0 C0.8952,0 0,0.8952 0,2 L0,50 C0,51.1048 0.8952,52 2,52 L12,52 L12,66 C12,67.1048 12.8952,68 14,68 L62,68 C63.1048,68 64,67.1048 64,66 L64,66 Z" id="Fill-1"></path>
                    <path d="M22,56 C23.1048,56 24,56.8952 24,58 C24,59.1048 23.1048,60 22,60 C20.8952,60 20,59.1048 20,58 C20,56.8952 20.8952,56 22,56" id="Fill-3"></path>
                    <path d="M30,56 C31.1048,56 32,56.8952 32,58 C32,59.1048 31.1048,60 30,60 C28.8952,60 28,59.1048 28,58 C28,56.8952 28.8952,56 30,56" id="Fill-5"></path>
                    <path d="M38,56 C39.1048,56 40,56.8952 40,58 C40,59.1048 39.1048,60 38,60 C36.8952,60 36,59.1048 36,58 C36,56.8952 36.8952,56 38,56" id="Fill-7"></path>
                    <path d="M46,56 C47.1048,56 48,56.8952 48,58 C48,59.1048 47.1048,60 46,60 C44.8952,60 44,59.1048 44,58 C44,56.8952 44.8952,56 46,56" id="Fill-9"></path>
                    <path d="M54,56 C55.1048,56 56,56.8952 56,58 C56,59.1048 55.1048,60 54,60 C52.8952,60 52,59.1048 52,58 C52,56.8952 52.8952,56 54,56" id="Fill-11"></path>
                    <path d="M54,48 C55.1048,48 56,48.8952 56,50 C56,51.1048 55.1048,52 54,52 C52.8952,52 52,51.1048 52,50 C52,48.8952 52.8952,48 54,48" id="Fill-13"></path>
                    <path d="M54,40 C55.1048,40 56,40.8952 56,42 C56,43.1048 55.1048,44 54,44 C52.8952,44 52,43.1048 52,42 C52,40.8952 52.8952,40 54,40" id="Fill-15"></path>
                    <path d="M54,32 C55.1048,32 56,32.8952 56,34 C56,35.1048 55.1048,36 54,36 C52.8952,36 52,35.1048 52,34 C52,32.8952 52.8952,32 54,32" id="Fill-17"></path>
                    <path d="M54,24 C55.1048,24 56,24.8952 56,26 C56,27.1048 55.1048,28 54,28 C52.8952,28 52,27.1048 52,26 C52,24.8952 52.8952,24 54,24" id="Fill-19"></path>
                    <path d="M46,24 C47.1048,24 48,24.8952 48,26 C48,27.1048 47.1048,28 46,28 C44.8952,28 44,27.1048 44,26 C44,24.8952 44.8952,24 46,24" id="Fill-21"></path>
                </g>
            </g>
        </g>
    </g>
</svg>