<?xml version="1.0" encoding="UTF-8"?>
<svg width="16px" height="16px" viewBox="0 0 16 16" version="1.1" xmlns="http://www.w3.org/2000/svg" xmlns:xlink="http://www.w3.org/1999/xlink">
    <!-- Generator: Sketch 46.2 (44496) - http://www.bohemiancoding.com/sketch -->
    <title>icon-search</title>
    <desc>Created with Sketch.</desc>
    <defs></defs>
    <g id="Symbols" stroke="none" stroke-width="1" fill="none" fill-rule="evenodd">
        <g id="input/search" transform="translate(-272.000000, -18.000000)" fill="#ADACB0">
            <path d="M278.146889,28.9347556 C276.867956,28.9347556 275.665644,28.4368 274.761289,27.5324444 C273.856933,26.6280889 273.358978,25.4257778 273.358978,24.1468444 C273.358978,22.8679111 273.856933,21.6656 274.761289,20.7612444 C275.665644,19.8568889 276.867956,19.3589333 278.146889,19.3589333 C279.425822,19.3589333 280.628133,19.8568889 281.532489,20.7612444 C282.436844,21.6656 282.9348,22.8679111 282.9348,24.1468444 C282.9348,25.4257778 282.436844,26.6280889 281.532489,27.5324444 C280.628133,28.4368 279.425644,28.9347556 278.146889,28.9347556 M287.658889,32.0119111 L284.629911,28.9829333 C284.355067,28.7079111 283.977111,28.6019556 283.620311,28.6595556 L282.946533,27.9857778 C284.881644,25.5722667 284.731244,22.0384 282.4932,19.8003556 C281.293022,18.6001778 279.719867,18 278.146889,18 C276.573733,18 275.000756,18.6001778 273.8004,19.8003556 C271.399867,22.2008889 271.399867,26.0928 273.8004,28.4931556 C275.000578,29.6933333 276.573733,30.2935111 278.146889,30.2935111 C279.507067,30.2935111 280.866711,29.8439111 281.986,28.9464889 L282.659778,29.6202667 C282.602178,29.9768889 282.708133,30.3548444 282.983156,30.6298667 L286.012133,33.6588444 C286.239156,33.8862222 286.537467,34 286.835422,34 C287.133378,34 287.431511,33.8862222 287.658889,33.6588444 C288.113822,33.2040889 288.113822,32.4666667 287.658889,32.0119111" id="icon-search"></path>
        </g>
    </g>
</svg>