<?xml version="1.0" encoding="UTF-8"?>
<svg width="16px" height="18px" viewBox="0 0 16 18" version="1.1" xmlns="http://www.w3.org/2000/svg" xmlns:xlink="http://www.w3.org/1999/xlink">
    <!-- Generator: Sketch 46.2 (44496) - http://www.bohemiancoding.com/sketch -->
    <title>icon-calendar-focus</title>
    <desc>Created with Sketch.</desc>
    <defs></defs>
    <g id="Symbols" stroke="none" stroke-width="1" fill="none" fill-rule="evenodd">
        <g id="date/input-focus" transform="translate(-112.000000, -45.000000)" fill="#009DE0">
            <g id="Group-2">
                <g id="Group-3" transform="translate(16.000000, 44.000000)">
                    <g id="Group-4">
                        <path d="M110.327741,17.3690062 L108.111509,17.3690062 L108.111509,14.9972499 L110.891519,14.9972499 L110.891519,16.8052281 C110.891519,17.1162781 110.638791,17.3690062 110.327741,17.3690062 L110.327741,17.3690062 Z M97.1275562,16.8052281 L97.1275562,14.9972499 L99.9464469,14.9972499 L99.9464469,17.3690062 L97.6913344,17.3690062 C97.3802844,17.3690062 97.1275562,17.1162781 97.1275562,16.8052281 L97.1275562,16.8052281 Z M97.6913344,3.62448436 L99.3632281,3.62448436 L99.3632281,4.81036248 C99.3632281,5.12141248 99.6159562,5.37414061 99.9270062,5.37414061 C100.238056,5.37414061 100.490784,5.12141248 100.490784,4.81036248 L100.490784,3.62448436 L107.489409,3.62448436 L107.489409,4.81036248 C107.489409,5.12141248 107.742137,5.37414061 108.053187,5.37414061 C108.364237,5.37414061 108.616966,5.12141248 108.616966,4.81036248 L108.616966,3.62448436 L110.327741,3.62448436 C110.638791,3.62448436 110.891519,3.87721249 110.891519,4.18826249 L110.891519,6.81274685 L97.1275562,6.81274685 L97.1275562,4.18826249 C97.1275562,3.87721249 97.3802844,3.62448436 97.6913344,3.62448436 L97.6913344,3.62448436 Z M108.111509,14.0835406 L110.891519,14.0835406 L110.891519,11.3424125 L108.111509,11.3424125 L108.111509,14.0835406 Z M104.456672,14.1029812 L104.456672,11.3424125 L107.1978,11.3424125 L107.1978,14.0835406 L104.456672,14.0835406 L104.456672,14.1029812 Z M104.456672,17.3690062 L107.1978,17.3690062 L107.1978,14.9972499 L104.456672,14.9972499 L104.456672,17.3690062 Z M100.860156,17.3690062 L103.562403,17.3690062 L103.562403,14.9972499 L100.860156,14.9972499 L100.860156,17.3690062 Z M100.860156,14.0835406 L103.562403,14.0835406 L103.562403,11.3424125 L100.860156,11.3424125 L100.860156,14.0835406 Z M97.1275562,14.0835406 L99.9464469,14.0835406 L99.9464469,11.3424125 L97.1275562,11.3424125 L97.1275562,14.0835406 Z M97.1275562,10.4481437 L99.9464469,10.4481437 L99.9464469,7.92086247 L97.1275562,7.92086247 L97.1275562,10.4481437 Z M108.111509,10.4481437 L110.891519,10.4481437 L110.891519,7.92086247 L108.111509,7.92086247 L108.111509,10.4481437 Z M104.456672,10.4481437 L107.217241,10.4481437 L107.217241,7.92086247 L104.456672,7.92086247 L104.456672,10.4481437 Z M100.860156,10.4481437 L103.562403,10.4481437 L103.562403,7.92086247 L100.860156,7.92086247 L100.860156,10.4481437 Z M110.327741,2.49692812 L108.616966,2.49692812 L108.616966,1.56377812 C108.616966,1.25272812 108.364237,1 108.053187,1 C107.742137,1 107.489409,1.25272812 107.489409,1.56377812 L107.489409,2.49692812 L100.490784,2.49692812 L100.490784,1.56377812 C100.490784,1.25272812 100.238056,1 99.9270062,1 C99.6159562,1 99.3632281,1.25272812 99.3632281,1.56377812 L99.3632281,2.49692812 L97.6913344,2.49692812 C96.7581844,2.49692812 96,3.25511249 96,4.18826249 L96,16.8052281 C96,17.738378 96.7581844,18.4965624 97.6913344,18.4965624 L110.3083,18.4965624 C111.24145,18.4965624 111.999634,17.738378 111.999634,16.8052281 L111.999634,4.18826249 C112.019075,3.25511249 111.260891,2.49692812 110.327741,2.49692812 L110.327741,2.49692812 Z" id="icon-calendar-focus"></path>
                    </g>
                </g>
            </g>
        </g>
    </g>
</svg>