<?xml version="1.0" encoding="UTF-8"?>
<svg width="22px" height="32px" viewBox="0 0 22 32" version="1.1" xmlns="http://www.w3.org/2000/svg" xmlns:xlink="http://www.w3.org/1999/xlink">
    <!-- Generator: Sketch 44.1 (41455) - http://www.bohemiancoding.com/sketch -->
    <title>Icon PDF Label</title>
    <desc>Created with Sketch.</desc>
    <defs></defs>
    <g id="File-Types-Icons" stroke="none" stroke-width="1" fill="none" fill-rule="evenodd">
        <g id="Assets" transform="translate(-144.000000, -153.000000)">
            <g id="Icon-PDF-Label" transform="translate(131.000000, 146.000000)">
                <text id="PDF" font-family="Roboto-Medium, Roboto" font-size="8" font-weight="400" fill="#7E7E7E">
                    <tspan x="17" y="39">PDF</tspan>
                </text>
                <path d="M24.1448959,8.26205253 C24.5658959,8.44505253 24.4718959,8.72205253 24.3328959,10.0240525 C24.1898959,11.3730525 23.7148959,13.8300525 22.7978959,16.2420525 C21.8798959,18.6570525 20.5178959,21.0270525 19.3308959,22.7840525 C18.1458959,24.5390525 17.1298959,25.6800525 16.3568959,26.3380525 C15.5798959,26.9960525 15.0428959,27.1710525 14.6918959,27.2310525 C14.3438959,27.2910525 14.1858959,27.2310525 14.0918959,27.0560525 C13.9978959,26.8810525 13.9648959,26.5860525 14.0458959,26.2370525 C14.1248959,25.8840525 14.3138959,25.4740525 14.8498959,24.9500525 C15.3908959,24.4230525 16.2758959,23.7800525 17.5108959,23.1780525 C18.7458959,22.5790525 20.3268959,22.0220525 21.6258959,21.6430525 C22.9248959,21.2620525 23.9368959,21.0580525 24.8228959,20.8980525 C25.7108959,20.7370525 26.4698959,20.6200525 27.2128959,20.5620525 C27.9578959,20.5020525 28.6868959,20.5020525 29.3988959,20.5620525 C30.1108959,20.6200525 30.8078959,20.7370525 31.4098959,20.8810525 C32.0108959,21.0280525 32.5178959,21.2040525 32.9608959,21.4830525 C33.4028959,21.7600525 33.7838959,22.1410525 33.9728959,22.5650525 C34.1648959,22.9900525 34.1648959,23.4580525 34.0058959,23.7940525 C33.8478959,24.1300525 33.5298959,24.3360525 33.1668959,24.4510525 C32.8038959,24.5680525 32.3918959,24.5970525 31.9008959,24.4510525 C31.4098959,24.3050525 30.8378959,23.9840525 30.2378959,23.5580525 C29.6378959,23.1350525 29.0038959,22.6100525 28.1808959,21.7900525 C27.3578959,20.9700525 26.3438959,19.8560525 25.4898959,18.7750525 C24.6358959,17.6920525 23.9368959,16.6390525 23.4618959,15.7470525 C22.9888959,14.8540525 22.7348959,14.1230525 22.5288959,13.3900525 C22.3228959,12.6590525 22.1648959,11.9280525 22.1018959,11.2700525 C22.0388959,10.6100525 22.0688959,10.0250525 22.1328959,9.56005253 C22.1958959,9.09005253 22.2928959,8.74005253 22.4498959,8.50605253 C22.6078959,8.27105253 22.8308959,8.15405253 22.9888959,8.09605253 C23.1468959,8.03605253 23.2428959,8.03605253 23.3368959,8.02305253 C23.4308959,8.00905253 23.5248959,7.97905253 23.6698959,8.02305253 C23.8078959,8.06305253 23.9918959,8.17505253 24.1448959,8.26205253 L24.1448959,8.26205253 Z" id="Shape" stroke="#DB5565" stroke-width="1.57"></path>
            </g>
        </g>
    </g>
</svg>