<?xml version="1.0" encoding="UTF-8"?>
<svg width="23px" height="32px" viewBox="0 0 23 32" version="1.1" xmlns="http://www.w3.org/2000/svg" xmlns:xlink="http://www.w3.org/1999/xlink">
    <!-- Generator: Sketch 44.1 (41455) - http://www.bohemiancoding.com/sketch -->
    <title>Icon Power Point Label</title>
    <desc>Created with Sketch.</desc>
    <defs>
        <rect id="path-1" x="13.9642857" y="3.28571429" width="9.03571429" height="1"></rect>
        <rect id="path-2" x="22.1785714" y="4.10714286" width="1" height="11.5"></rect>
    </defs>
    <g id="File-Types-Icons" stroke="none" stroke-width="1" fill="none" fill-rule="evenodd">
        <g id="Assets" transform="translate(-31.000000, -153.000000)">
            <g id="Icon-Power-Point-Label" transform="translate(19.000000, 146.000000)">
                <g id="Power-point-logo" transform="translate(12.000000, 7.000000)">
                    <g id="One-Note" transform="translate(13.407638, 4.825893)" fill="#E24325">
                        <path d="M0.454717142,0.0488366196 L8.21428571,0.0488366196 L8.21428571,13.9642857 L0.454717142,13.9642857 L0.454717142,0.0488366196 Z M0.454717142,8.88991255 L0.454717142,9.9777536 L5.75,9.9777536 L5.75,8.88991255 L0.454717142,8.88991255 Z M0.454717142,11.6095152 L0.454717142,12.6973562 L5.75,12.6973562 L5.75,11.6095152 L0.454717142,11.6095152 Z" id="Rectangle-46"></path>
                    </g>
                    <path d="M15.2336382,7.39318748 C15.2212614,7.39296757 15.2088579,7.39285714 15.1964286,7.39285714 C14.0622724,7.39285714 13.1428571,8.31227239 13.1428571,9.44642857 C13.1428571,10.5805848 14.0622724,11.5 15.1964286,11.5 C16.2971734,11.5 17.1956431,10.6339574 17.2476243,9.54608567 L15.2336382,9.54608563 L15.2336382,7.39318748 Z" id="Combined-Shape" fill="#FFFFFF"></path>
                    <g id="Rectangle-88">
                        <use fill="#D8D8D8" fill-rule="evenodd" xlink:href="#path-1"></use>
                        <rect stroke="#FFFFFF" stroke-width="0.81" x="14.3692857" y="3.69071429" width="8.22571429" height="1"></rect>
                    </g>
                    <g id="Rectangle-88-Copy">
                        <use fill="#D8D8D8" fill-rule="evenodd" xlink:href="#path-2"></use>
                        <rect stroke="#FFFFFF" stroke-width="0.81" x="22.5835714" y="4.51214286" width="1" height="10.69"></rect>
                    </g>
                    <polygon id="Path" fill="#E24325" points="13.3020786 0.76758662 13.3020786 22.5347593 0.264780859 20.2275726 0.264780859 2.98233046"></polygon>
                    <path d="M16.7205636,7.58537948 C16.9087769,7.73408387 17.2135406,8.09045536 17.325637,8.41898027 C17.4696102,8.84092783 17.4504256,9.31288907 17.4504256,9.31288907 L15.4380283,9.3128891 L15.4380283,7.13133683 C15.4380283,7.13133683 16.2452741,7.20986067 16.7205636,7.58537948 Z" id="Triangle-1-Copy" fill="#FFFFFF"></path>
                    <text id="P" font-family="SFCompactText-Light, SF Compact Text" font-size="9.97318312" font-style="condensed" font-weight="300" fill="#FFFFFF">
                        <tspan x="3.57091254" y="14.2024261">P</tspan>
                    </text>
                </g>
                <text id="PPTX" font-family="Roboto-Medium, Roboto" font-size="8" font-weight="400" fill="#7E7E7E">
                    <tspan x="14" y="39">PPTX</tspan>
                </text>
            </g>
        </g>
    </g>
</svg>