<?xml version="1.0" encoding="UTF-8"?>
<svg width="21px" height="30px" viewBox="0 0 21 30" version="1.1" xmlns="http://www.w3.org/2000/svg" xmlns:xlink="http://www.w3.org/1999/xlink">
    <!-- Generator: Sketch 44.1 (41455) - http://www.bohemiancoding.com/sketch -->
    <title>Icon Excel Label</title>
    <desc>Created with Sketch.</desc>
    <defs></defs>
    <g id="File-Types-Icons" stroke="none" stroke-width="1" fill="none" fill-rule="evenodd">
        <g id="Assets" transform="translate(-201.000000, -156.000000)">
            <g id="Icon-Excel-Label" transform="translate(187.000000, 146.000000)">
                <text id="XLSX" font-family="Roboto-Medium, Roboto" font-size="8" font-weight="400" fill="#7E7E7E">
                    <tspan x="14" y="39">XLSX</tspan>
                </text>
                <g id="Excel" transform="translate(14.000000, 10.000000)">
                    <path d="M11.7076844,0 L11.7076844,20.8183221 L0,18.6117077 L0,2.11820117 L11.7076844,0 Z M12.2108209,2.42528732 L20.2840909,2.42528732 L20.2840909,18.4395165 L12.2108209,18.4395165 L12.2108209,2.42528732 Z M12.2108209,3.54677559 L12.2108209,5.69633655 L15.1373813,5.69633655 L15.1373813,3.54677559 L12.2108209,3.54677559 Z M15.7428765,3.54677559 L15.7428765,5.69633655 L19.0731004,5.69633655 L19.0731004,3.54677559 L15.7428765,3.54677559 Z M15.7428765,6.34120484 L15.7428765,8.4907658 L19.0731004,8.4907658 L19.0731004,6.34120484 L15.7428765,6.34120484 Z M12.2108209,6.34120484 L12.2108209,8.4907658 L15.1373813,8.4907658 L15.1373813,6.34120484 L12.2108209,6.34120484 Z M12.2108209,9.13563409 L12.2108209,11.2851951 L15.1373813,11.2851951 L15.1373813,9.13563409 L12.2108209,9.13563409 Z M12.2108209,11.9300633 L12.2108209,14.0796243 L15.1373813,14.0796243 L15.1373813,11.9300633 L12.2108209,11.9300633 Z M12.2108209,14.7244926 L12.2108209,16.8740536 L15.1373813,16.8740536 L15.1373813,14.7244926 L12.2108209,14.7244926 Z M15.7428765,9.13563409 L15.7428765,11.2851951 L19.0731004,11.2851951 L19.0731004,9.13563409 L15.7428765,9.13563409 Z M15.7428765,11.9300633 L15.7428765,14.0796243 L19.0731004,14.0796243 L19.0731004,11.9300633 L15.7428765,11.9300633 Z M15.7428765,14.7244926 L15.7428765,16.8740536 L19.0731004,16.8740536 L19.0731004,14.7244926 L15.7428765,14.7244926 Z" id="Rectangle-46" fill="#02955F"></path>
                    <text id="X" font-family=".SFNSText, .SF NS Text" font-size="9.1667137" font-weight="normal" fill="#FFFFFF">
                        <tspan x="2.85227273" y="12.5789522">X</tspan>
                    </text>
                </g>
            </g>
        </g>
    </g>
</svg>