<?xml version="1.0" encoding="UTF-8"?>
<svg width="17px" height="30px" viewBox="0 0 17 30" version="1.1" xmlns="http://www.w3.org/2000/svg" xmlns:xlink="http://www.w3.org/1999/xlink">
    <!-- Generator: Sketch 44.1 (41455) - http://www.bohemiancoding.com/sketch -->
    <title>Icon TXT Label</title>
    <desc>Created with Sketch.</desc>
    <defs>
        <path d="M2.125,0 L10.625,0 L17,6.3 L17,18.9 C17,20.055 16.04375,21 14.875,21 L2.125,21 C0.95625,21 0,20.055 0,18.9 L0,2.1 C0,0.945 0.95625,0 2.125,0 Z M2.5,15 L14.5,15 L15,15 L15,14 L14.5,14 L2.5,14 L2,14 L2,15 L2.5,15 Z M2.5,18 L14.5,18 L15,18 L15,17 L14.5,17 L2.5,17 L2,17 L2,18 L2.5,18 Z" id="path-1"></path>
    </defs>
    <g id="File-Types-Icons" stroke="none" stroke-width="1" fill="none" fill-rule="evenodd">
        <g id="Assets" transform="translate(-483.000000, -154.000000)">
            <g id="Icon-TXT-Label" transform="translate(467.000000, 146.000000)">
                <text id="PNG" font-family="Roboto-Medium, Roboto" font-size="8" font-weight="400" fill="#7E7E7E">
                    <tspan x="17" y="38">TXT</tspan>
                </text>
                <g id="Group-3" transform="translate(16.000000, 8.000000)">
                    <g id="Group-7">
                        <mask id="mask-2" fill="white">
                            <use xlink:href="#path-1"></use>
                        </mask>
                        <use id="Combined-Shape" fill="#B1BAC1" xlink:href="#path-1"></use>
                    </g>
                    <text id="T" font-family="TimesNewRomanPSMT, Times New Roman" font-size="14" font-weight="normal" fill="#FFFFFF">
                        <tspan x="3" y="12">T</tspan>
                    </text>
                </g>
            </g>
        </g>
    </g>
</svg>