<?xml version="1.0" encoding="UTF-8"?>
<svg width="17px" height="30px" viewBox="0 0 17 30" version="1.1" xmlns="http://www.w3.org/2000/svg" xmlns:xlink="http://www.w3.org/1999/xlink">
    <!-- Generator: Sketch 44.1 (41455) - http://www.bohemiancoding.com/sketch -->
    <title>Icon ZIP Label</title>
    <desc>Created with Sketch.</desc>
    <defs>
        <path d="M0.6796875,25.9963379 L0.6796875,0.746337891 L8,0.973033044 L8,1.8667225 L9,1.8667225 L9,2.76041196 L8,2.76041196 L8,3.65410142 L9,3.65410142 L9,4.54779088 L8,4.54779088 L8,5.44148034 L9,5.44148034 L9,6.3351698 L8,6.3351698 L8,7.22885926 L9,7.22885926 L9,8.12254871 L8,8.12254871 L8,9.01623817 L9,9.01623817 L9,9.90992763 L8,9.90992763 L8,10.8036171 L9,10.8036171 L9,11.6973065 L8,11.6973065 L8,12.590996 L8.5,12.590996 C8.2236328,12.590996 8,12.7908543 8,13.0378407 L8,17.506288 C8,17.7532745 8.2236328,17.9531328 8.5,17.9531328 L10.5,17.9531328 C10.7763672,17.9531328 11,17.7532745 11,17.506288 L11,13.0378407 C11,12.7908543 10.7763672,12.590996 10.5,12.590996 L10,12.590996 L10,11.6973065 L11,11.6973065 L11,10.8036171 L10,10.8036171 L10,9.90992763 L11,9.90992763 L11,9.01623817 L10,9.01623817 L10,8.12254871 L11,8.12254871 L11,7.22885926 L10,7.22885926 L10,6.3351698 L11,6.3351698 L11,5.44148034 L10,5.44148034 L10,4.54779088 L11,4.54779088 L11,3.65410142 L10,3.65410142 L10,2.76041196 L11,2.76041196 L11,1.8667225 L10,1.8667225 L10,0.973033044 L11,0.973033044 L14,0.973033044 L18.4604492,0.973033044 C18.4604492,1.46656956 17.9082031,1.8667225 18.4604492,1.8667225 L18.4604492,6.3351698 L18.4604492,25.9963379 L0.6796875,25.9963379 Z" id="path-1"></path>
    </defs>
    <g id="File-Types-Icons" stroke="none" stroke-width="1" fill="none" fill-rule="evenodd">
        <g id="Assets" transform="translate(-706.000000, -154.000000)">
            <g id="Icon-ZIP-Label" transform="translate(691.000000, 146.000000)">
                <text id="PNG" font-family="Roboto-Medium, Roboto" font-size="8" font-weight="400" fill="#7E7E7E">
                    <tspan x="17" y="38">ZIP</tspan>
                </text>
                <g id="Group-5" transform="translate(14.000000, 7.000000)">
                    <mask id="mask-2" fill="white">
                        <use xlink:href="#path-1"></use>
                    </mask>
                    <g id="Mask"></g>
                    <path d="M1,3.1 L1,19.9 C1,21.055 1.95625,22 3.125,22 L15.875,22 C17.04375,22 18,21.055 18,19.9 L18,7.3 L11.625,1 L3.125,1 C1.95625,1 1,1.945 1,3.1 Z" id="Shape" fill="#F4AD49" mask="url(#mask-2)"></path>
                </g>
            </g>
        </g>
    </g>
</svg>